<?xml version="1.0" encoding="utf-8"?>
<svg id="master-artboard" viewBox="0 0 622.0852661132812 489.4786682128906" version="1.1" xmlns="http://www.w3.org/2000/svg" x="0px" y="0px" style="enable-background:new 0 0 1400 980;" width="622.0852661132812px" height="489.4786682128906px"><rect id="ee-background" x="0" y="0" width="622.0852661132812" height="489.4786682128906" style="fill: white; fill-opacity: 0; pointer-events: none;"/><g transform="matrix(0.44434661865234376, 0, 0, 0.44434661865234376, -0.000009220358151651453, 27.009509299038655)"><g transform="matrix(1, 0, 0, 1, 0.00005181479809834855, 0.000003073452717217151)"><g transform="matrix(7.65625, 0, 0, 7.65625, 210.00000335562868, 0)"><path d="m64 17.281c-25.762 0-46.719 20.957-46.719 46.719 0 18.98 11.387 35.348 27.684 42.648 0.11328 0.078124 0.24219 0.13281 0.37891 0.17187 5.7148 2.5 12.023 3.8984 18.656 3.8984 25.762 0 46.719-20.957 46.719-46.719s-20.957-46.719-46.719-46.719zm-28.586 80.34 5.3789-15.645 11.398 3.9062c0.13281 0.046876 0.27344 0.070313 0.41406 0.070313 0.20312 0 0.41016-0.046875 0.59375-0.14453 0.3125-0.16406 0.54297-0.44922 0.64062-0.78516l2.9805-10.574 21.648 12.051c0.19531 0.10938 0.41016 0.16016 0.62109 0.16016 0.44922 0 0.88281-0.23828 1.1211-0.65625 0.34375-0.61719 0.12109-1.3984-0.49609-1.7422l-22.18-12.348 7.6172-27.004c0.19141-0.67969-0.20312-1.3867-0.88281-1.5781-0.67578-0.1875-1.3867 0.20312-1.5781 0.88281l-10.949 38.809-31.098-10.656c-0.50391-2.6172-0.78125-5.3164-0.79688-8.0781l42.793-28.422c0.65625-0.4375 1.3672-0.53516 2.1094-0.30078 1.1562 0.36719 2.207 1.5234 2.8086 3.0859l18.039 46.906c0.75391 2.043 0.87891 3.6797 0.36719 4.7422-0.32422 0.66797-0.91016 1.1367-1.793 1.4219l-38.383 12.488c-3.7734-1.7109-7.2578-3.9375-10.375-6.5898zm-14.102-22.316 17.059 5.8438-5.0195 14.602c-5.7109-5.5156-9.9453-12.547-12.039-20.445zm42.688 32.855c-5.082 0-9.9609-0.875-14.508-2.4609l35.469-11.539c1.5352-0.5 2.6797-1.4492 3.3047-2.7422 0.83594-1.7266 0.74609-3.9922-0.27344-6.7578l-18.047-46.926c-0.89062-2.3164-2.5039-3.9922-4.418-4.6055-1.4727-0.46875-3.0039-0.25781-4.3047 0.60938l-41.281 27.418c1.4727-23.027 20.664-41.316 44.059-41.316 24.348 0 44.16 19.812 44.16 44.16s-19.812 44.16-44.16 44.16z" style="fill: rgb(255, 255, 204); stroke: rgb(255, 255, 204); stroke-width: 4;"/></g><path d="M 361.77154541015625 411.0323791503906" style="fill: rgb(255, 255, 204); fill-opacity: 1; stroke: rgb(255, 255, 204); stroke-opacity: 1; stroke-width: 0; paint-order: fill;"/></g></g><path style="fill: rgb(255, 255, 204); fill-opacity: 1; stroke: rgb(255, 255, 204); stroke-opacity: 1; stroke-width: 4; paint-order: stroke;" d="M 185.4502410888672 155.6398162841797"/></svg>
