<?xml version="1.0" standalone="no"?>
<!DOCTYPE svg PUBLIC "-//W3C//DTD SVG 20010904//EN"
 "http://www.w3.org/TR/2001/REC-SVG-20010904/DTD/svg10.dtd">
<svg version="1.0" xmlns="http://www.w3.org/2000/svg"
 width="800.000000pt" height="800.000000pt" viewBox="0 0 800.000000 800.000000"
 preserveAspectRatio="xMidYMid meet">
<metadata>
Created by potrace 1.14, written by Peter Selinger 2001-2017
</metadata>
<g transform="translate(0.000000,800.000000) scale(0.100000,-0.100000)"
fill="#000000" stroke="none">
<path d="M3845 7684 c-718 -51 -1307 -244 -1855 -607 -689 -457 -1202 -1123
-1467 -1902 -123 -364 -180 -695 -190 -1105 -6 -274 9 -477 53 -725 176 -982
739 -1843 1574 -2404 172 -116 260 -167 446 -259 698 -345 1509 -456 2294
-312 316 58 635 164 925 307 454 224 821 503 1149 873 514 580 823 1279 912
2060 22 198 22 586 0 780 -52 447 -171 861 -352 1223 -154 308 -322 558 -540
807 -620 707 -1470 1148 -2399 1244 -142 15 -459 26 -550 20z m508 -439 c571
-62 1080 -253 1542 -578 694 -488 1181 -1248 1334 -2082 69 -377 69 -807 1
-1180 -85 -459 -275 -911 -541 -1287 -251 -353 -600 -682 -954 -898 -687 -420
-1466 -573 -2260 -444 -82 14 -153 28 -157 32 -4 4 518 177 1160 386 643 208
1203 395 1248 417 274 130 369 416 257 774 -35 110 -1385 3622 -1429 3714 -71
152 -177 267 -305 331 -144 73 -313 78 -442 14 -26 -14 -712 -466 -1525 -1005
-812 -540 -1483 -984 -1490 -987 -9 -3 -11 2 -8 19 3 13 13 65 22 114 189
1068 933 1993 1944 2419 404 170 809 253 1253 255 126 1 264 -5 350 -14z
m-295 -1189 c43 -23 79 -66 111 -136 55 -119 1402 -3634 1422 -3709 30 -115
23 -181 -21 -208 -10 -7 -675 -226 -1479 -487 l-1462 -476 -100 51 c-170 85
-434 255 -536 346 l-32 28 172 499 c95 275 178 501 184 503 6 2 181 -54 389
-125 209 -71 396 -133 416 -136 83 -15 178 43 215 131 11 26 60 191 109 366
72 256 92 317 105 314 8 -2 355 -193 770 -423 414 -231 767 -425 782 -432 41
-18 106 -14 155 8 135 61 164 240 55 341 -15 15 -392 230 -838 477 -445 248
-811 455 -813 461 -2 5 123 457 277 1005 155 547 281 1010 281 1029 0 113 -93
206 -207 207 -90 0 -145 -35 -187 -120 -13 -25 -202 -683 -422 -1462 -219
-780 -403 -1418 -408 -1418 -14 0 -2180 742 -2189 750 -13 11 -35 170 -47 329
-6 79 -9 145 -8 146 23 16 3219 2135 3233 2143 27 15 41 15 73 -2z m-2303
-3388 c83 -28 151 -52 153 -54 2 -1 -61 -190 -140 -419 l-143 -417 -58 63
c-166 182 -346 450 -471 704 -72 145 -166 369 -166 396 0 4 152 -44 338 -107
185 -64 405 -139 487 -166z"/>
</g>
</svg>
